<svg width="14" height="12" viewBox="0 0 14 12" fill="none" xmlns="http://www.w3.org/2000/svg">
<path d="M11.6666 0H2.33331C1.39065 0 0.919313 -3.97364e-08 0.626646 0.274667C0.33398 0.549333 0.333313 0.992 0.333313 1.87667V2.33667C0.333313 3.028 0.333313 3.374 0.506646 3.66067C0.67998 3.94733 0.995313 4.126 1.62798 4.482L3.56998 5.57533C3.99398 5.814 4.20665 5.93333 4.35865 6.06533C4.67465 6.33933 4.86931 6.662 4.95731 7.05867C4.99998 7.248 4.99998 7.47067 4.99998 7.91533V9.69533C4.99998 10.3013 4.99998 10.6047 5.16798 10.8407C5.33598 11.0773 5.63465 11.194 6.23065 11.4273C7.48331 11.9167 8.10931 12.1613 8.55465 11.8827C8.99998 11.604 8.99998 10.968 8.99998 9.69467V7.91467C8.99998 7.47067 8.99998 7.248 9.04265 7.058C9.12637 6.66944 9.33727 6.31989 9.64198 6.06467C9.79331 5.93333 10.006 5.814 10.43 5.57467L12.372 4.48133C13.004 4.126 13.3206 3.948 13.4933 3.66133C13.6666 3.37467 13.6666 3.028 13.6666 2.336V1.876C13.6666 0.992 13.6666 0.549333 13.3733 0.274667C13.0813 -3.97364e-08 12.61 0 11.6666 0Z" fill="white"/>
</svg>
