<svg width="20" height="20" viewBox="0 0 20 20" fill="none" xmlns="http://www.w3.org/2000/svg">
<path d="M0.958275 6.06366L0.958682 6.06291C1.1735 5.67012 1.48338 5.33584 1.9893 4.94831C2.5043 4.55382 3.19094 4.12694 4.14762 3.53286C4.14767 3.53283 4.14772 3.53279 4.14777 3.53276L6.14762 2.29186L6.14767 2.29183C7.1594 1.66391 7.8862 1.21353 8.49742 0.916272C9.09838 0.624014 9.54875 0.5 10 0.5C10.4513 0.5 10.9019 0.624033 11.503 0.916288C12.1143 1.21352 12.8411 1.66389 13.8522 2.29177L13.8524 2.29186L15.8522 3.53276C16.809 4.12693 17.496 4.55382 18.0111 4.94834C18.5172 5.33589 18.8269 5.67005 19.0411 6.06256L19.0416 6.06346C19.2572 6.45654 19.3759 6.90579 19.4372 7.55748C19.4995 8.21931 19.5 9.05022 19.5 10.204V11.725C19.5 13.6891 19.4988 15.1135 19.3573 16.2003C19.2175 17.2745 18.9487 17.9435 18.4684 18.4406C17.9906 18.9352 17.3508 19.2099 16.3201 19.3533C15.2733 19.4989 13.9001 19.5 12 19.5H8C6.09989 19.5 4.72695 19.4989 3.68026 19.3533C2.64978 19.2099 2.00985 18.9352 1.53143 18.4404C1.0508 17.9434 0.782008 17.2743 0.642326 16.2C0.500994 15.113 0.5 13.6887 0.5 11.725V10.203C0.5 9.04973 0.50051 8.21881 0.5628 7.55698C0.624141 6.90523 0.742779 6.45611 0.958275 6.06366ZM7.74883 13.0001C7.61841 12.8995 7.46938 12.8257 7.3103 12.7829C7.1495 12.7396 6.98167 12.7289 6.81666 12.7513C6.65166 12.7738 6.49281 12.829 6.34944 12.9138C6.20608 12.9985 6.08109 13.111 5.98181 13.2447C5.88253 13.3784 5.81097 13.5306 5.77133 13.6923C5.73169 13.8541 5.72477 14.0221 5.75097 14.1866C5.77717 14.351 5.83597 14.5086 5.92391 14.65C6.0106 14.7894 6.1239 14.9104 6.25731 15.006C7.33839 15.8123 8.65071 16.2486 9.99948 16.25L10.0006 16.25C11.349 16.2484 12.6609 15.8121 13.7417 15.006C13.8751 14.9104 13.9884 14.7894 14.0751 14.65C14.163 14.5086 14.2218 14.351 14.248 14.1866C14.2742 14.0221 14.2673 13.8541 14.2277 13.6923C14.188 13.5306 14.1165 13.3784 14.0172 13.2447C13.9179 13.111 13.7929 12.9985 13.6496 12.9138C13.5062 12.829 13.3473 12.7738 13.1823 12.7513C13.0173 12.7289 12.8495 12.7396 12.6887 12.7829C12.5296 12.8257 12.3806 12.8995 12.2502 13.0001C11.6004 13.4856 10.8112 13.7486 10 13.75C9.18865 13.7486 8.39856 13.4856 7.74883 13.0001Z" fill="#C4C4C4" stroke="#C4C4C4"/>
</svg>
