<svg width="78" height="78" viewBox="0 0 78 78" fill="none" xmlns="http://www.w3.org/2000/svg">
<g filter="url(#filter0_d_162_9306)">
<g clip-path="url(#clip0_162_9306)">
<path d="M15 39C15 25.7452 25.7452 15 39 15C52.2548 15 63 25.7452 63 39C63 52.2548 52.2548 63 39 63C25.7452 63 15 52.2548 15 39Z" fill="#E5638B"/>
<path fill-rule="evenodd" clip-rule="evenodd" d="M30.0257 30.0246C28.3827 30.1709 27.1312 30.3106 26.8815 30.3736C26.5236 30.4637 26.2108 30.6549 26.0036 30.9049C25.8033 31.148 25.5871 31.6927 25.4813 32.2194C25.4498 32.3746 25.3981 32.6989 25.3666 32.9397C25.2518 33.8131 25.2607 33.7792 24.984 34.5489C24.7343 35.2445 24.6305 35.9579 24.7028 36.5046C24.7274 36.705 24.7771 36.7749 24.8987 36.7838C24.9774 36.7906 25.0113 36.7725 25.1891 36.6488C26.1187 35.9871 26.231 35.9107 26.6633 35.6562C26.8434 35.5504 27.0798 35.3973 27.19 35.3164C27.3003 35.2353 27.4038 35.1678 27.4219 35.1678C27.4716 35.1678 27.6559 35.2692 27.8069 35.3815C27.9915 35.5189 28.3402 35.8384 28.7906 36.2864C29.0201 36.5159 29.2519 36.7187 29.4365 36.8557L29.727 37.0695L29.7112 37.2383C29.7044 37.3305 29.6571 37.7291 29.6099 38.1251C29.5602 38.519 29.4951 39.1355 29.4636 39.4979C29.4095 40.0942 29.3263 40.9542 29.2406 41.7732C29.2204 41.9465 29.1958 42.3202 29.1845 42.6059C29.1372 43.6345 29.1214 43.7649 29.0112 44.0824C28.804 44.6788 28.4529 45.3946 27.9442 46.2635C27.7665 46.5674 27.5729 46.9164 27.5144 47.04C27.2667 47.5668 26.792 48.7146 26.6636 49.0972C26.4926 49.6013 26.4475 49.6914 26.1933 50.0267C25.9501 50.3487 25.7723 50.648 25.5384 51.1159C25.2952 51.6067 25.1986 51.8407 25.0072 52.4055C24.4759 53.9766 24.2533 54.5325 23.9224 55.1244C23.5285 55.831 23.1593 56.6595 23.0288 57.1411C22.9545 57.4134 22.7743 58.2574 22.6236 59.0362C22.5606 59.3558 22.4952 59.59 22.3109 60.1504C21.9619 61.2081 21.9125 61.2916 21.3138 61.8068C20.9874 62.088 20.8593 62.2367 20.3483 62.9255C19.4841 64.0914 19.1488 64.7596 18.8741 65.8783C18.6446 66.8079 18.5973 67.2648 18.6467 68.0413C18.6782 68.5163 18.6737 68.5431 18.4981 69.0294C18.2617 69.673 18.1829 70.0018 18.075 70.7557C17.9918 71.3362 17.976 71.8404 18.0367 72.1264C18.111 72.4843 18.2775 72.8152 18.6063 73.2584C19.0406 73.8438 19.8801 74.5302 20.4517 74.7686C20.7151 74.8789 21.1789 75.1265 21.3207 75.2344C21.3994 75.293 21.4669 75.3313 21.4738 75.3176C21.4827 75.3063 21.4806 75.2861 21.4714 75.2704C21.4625 75.2546 21.4645 75.2522 21.4803 75.2615C21.4961 75.2704 21.5074 75.293 21.5074 75.3132C21.5074 75.3334 21.5478 75.4684 21.5951 75.6125C21.6447 75.7543 21.7098 75.9838 21.7437 76.1191C21.8156 76.4297 21.9036 76.612 22.0656 76.7877C22.3359 77.0802 22.6373 77.2333 22.8849 77.2041C23.0086 77.1884 23.1031 77.2175 23.2226 77.3076C23.3802 77.4247 23.4771 77.4583 23.6638 77.4583C23.8347 77.4583 23.8484 77.4538 24.1409 77.312C24.4988 77.1387 24.5482 77.1343 24.8746 77.2356C25.0794 77.2987 25.1178 77.3031 25.3562 77.2963C25.5744 77.2874 25.6353 77.2782 25.7388 77.2288C25.8535 77.1771 25.8761 77.1747 26.009 77.1949C26.27 77.2333 26.4118 77.1634 26.52 76.9452C26.5806 76.8236 26.583 76.801 26.583 76.513C26.583 76.2496 26.5741 76.1797 26.52 75.9907C26.4299 75.6756 26.2837 75.3379 26.0518 74.9217C25.6421 74.1835 25.4555 73.704 25.3924 73.2447C25.3835 73.1683 25.388 73.157 25.4397 73.1458C25.6198 73.1009 26.3693 73.2447 26.5583 73.3595C26.6303 73.4044 26.6327 73.4136 26.6484 73.5801C26.6573 73.677 26.6731 74.1045 26.6844 74.5322C26.7091 75.4639 26.7227 75.5721 26.9094 76.2766C26.9814 76.5469 26.9814 76.5469 26.9656 76.9295C26.9296 77.7419 26.9567 78.2282 27.0691 78.7907C27.1455 79.1801 27.2153 79.3692 27.3527 79.5538C27.5236 79.7857 27.7017 79.8689 28.1268 79.9138C28.4035 79.9429 28.7704 79.9182 29.1464 79.8463C29.3783 79.8014 29.4345 79.8059 29.7427 79.8912C29.952 79.9498 30.0623 79.9408 30.4607 79.8282C30.6744 79.7696 30.7871 79.7494 30.9018 79.7518C31.1765 79.7562 31.3971 79.6415 31.5005 79.4411C31.5861 79.2702 31.6108 78.8828 31.568 78.3698C31.4961 77.5415 31.3721 77.2264 30.8456 76.5466C30.5867 76.2112 30.5487 76.04 30.5802 75.3515C30.5915 75.1176 30.6093 74.5346 30.6206 74.0575C30.634 73.5804 30.6545 73.1639 30.6655 73.1347C30.6925 73.0693 31.2889 72.4596 31.5951 72.185C31.7797 72.0161 31.9664 71.8024 32.1082 71.5886L32.142 71.539L32.3537 71.5952C32.8038 71.7168 33.3508 71.9329 33.6727 72.1175C33.7717 72.1737 34.0149 72.3291 34.2129 72.4617C34.4108 72.5946 34.7396 72.806 34.9421 72.932C35.5589 73.3146 35.8062 73.5331 36.0943 73.9472C36.3306 74.2894 36.3803 74.3435 36.7786 74.699C37.2804 75.1491 37.465 75.3381 37.5123 75.4508C37.5349 75.5025 37.5685 75.669 37.5887 75.8221C37.6449 76.279 37.7281 76.5198 37.9511 76.8551C38.0614 77.0195 38.1514 77.0983 38.273 77.1411C38.3699 77.1726 38.793 77.1726 39.1307 77.1411C39.5379 77.1028 39.6393 77.1072 39.7992 77.175C39.9859 77.2514 40.1729 77.2538 40.4836 77.175C40.7918 77.0986 40.972 77.0106 41.1497 76.8486L41.296 76.7157L41.4782 76.7202C41.7642 76.7291 41.8677 76.6842 42.1108 76.4479C42.3831 76.1845 42.4979 76.0248 42.5181 75.8896C42.5472 75.6758 42.4393 75.3292 42.2119 74.8881C42.0588 74.5976 41.7663 74.375 41.359 74.2421C41.0823 74.152 40.6209 73.8325 40.524 73.666C40.4476 73.5331 40.2538 72.8333 40.1887 72.4507C40.0807 71.8294 40.0739 71.726 40.0513 70.2788C40.04 69.5181 40.0243 68.6447 40.0174 68.3388C40.0017 67.6973 40.04 66.5362 40.0894 66.0882C40.114 65.8652 40.175 65.5659 40.3144 64.9966C40.6227 63.7317 40.6521 63.5628 40.6319 63.0881C40.6161 62.7548 40.5935 62.6154 40.4247 61.8951C40.2784 61.2717 40.2469 61.0217 40.2648 60.646C40.2874 60.225 40.3322 59.9212 40.4922 59.1132C40.6902 58.1117 40.7576 57.5534 40.8635 55.9871C40.8881 55.6223 40.9354 55.0599 40.9693 54.7379C41.0368 54.0628 41.0505 53.2299 41.0032 52.7911C40.9559 52.3746 40.823 51.5173 40.7151 50.923C40.4877 49.6852 40.3099 48.9536 40.051 48.1997C39.6753 47.1036 39.5513 46.7118 39.4321 46.2484C39.3646 45.985 39.3105 45.7531 39.3105 45.7353C39.3105 45.7151 39.3735 45.5911 39.4499 45.4585C39.7291 44.9725 39.8034 44.7632 39.873 44.2364C39.9178 43.8943 40.0035 43.4846 40.0802 43.2596C40.2107 42.8657 40.4717 42.4694 40.9512 41.943C41.3968 41.4522 41.7006 41.0223 41.9664 40.5181C42.2072 40.0588 42.3061 39.7485 42.4367 39.0395C42.5312 38.5285 42.6391 37.9164 42.6528 37.8331L42.6641 37.7633L43.0871 37.7499C43.319 37.741 43.6002 37.7184 43.7105 37.6982C44.19 37.6126 44.4037 37.7163 44.8517 38.252C45.0993 38.5445 45.7813 39.2357 45.9029 39.3145C46.0131 39.3843 46.1796 39.4001 46.3036 39.3528C46.4094 39.3124 46.5488 39.1819 46.5985 39.0781C46.6255 39.0219 46.7132 38.7113 46.7944 38.3849C46.9386 37.8088 46.943 37.7749 46.9766 37.3067C47.0373 36.4267 47.0845 36.1363 47.2715 35.5061C47.4763 34.8173 47.501 34.7138 47.5168 34.5539C47.5349 34.3559 47.4966 34.0836 47.4222 33.8853C47.2986 33.5569 46.9811 33.165 46.666 32.9469C46.5759 32.8838 46.1484 32.6564 45.7138 32.4403C45.2816 32.2242 44.7325 31.9406 44.4962 31.8101C43.9516 31.5063 43.4429 31.2518 43.2289 31.1754C42.9902 31.0898 42.6864 31.0425 42.4952 31.0606C42.2274 31.0853 41.021 31.3398 40.7802 31.4206C40.6542 31.4635 40.4898 31.5286 40.4155 31.5648L40.2805 31.6347L40.1274 31.5806C39.8979 31.4973 38.7793 31.1552 38.4347 31.063C37.737 30.874 37.449 30.8243 36.9582 30.8086C36.5146 30.7952 36.2153 30.8175 35.6641 30.9031C35.4727 30.9322 35.1487 30.9774 34.9439 31.0021C34.739 31.0291 34.2845 31.0966 33.931 31.1528L33.2895 31.2586L32.7155 30.876C31.8941 30.3291 31.59 30.1557 31.2862 30.0591C31.1533 30.0163 31.068 30.0074 30.746 30.0006C30.5365 29.9976 30.2124 30.0065 30.0257 30.0246ZM36.2105 68.681C36.2129 69.2684 36.1859 69.5948 36.1318 69.6284C36.0304 69.6938 35.7738 69.5993 35.63 69.4438C35.4433 69.2458 35.4275 69.1311 35.5265 68.7437C35.6053 68.4375 35.7156 68.2464 35.9564 67.9964L36.1701 67.7758L36.1882 67.9402C36.1992 68.0326 36.2085 68.3659 36.2105 68.681Z" fill="white"/>
<path fill-rule="evenodd" clip-rule="evenodd" d="M50.8875 44.832C50.7886 44.8748 50.7232 44.9694 50.3563 45.5883C49.8296 46.4795 49.3031 47.5464 49.3031 47.7242C49.3031 47.7783 49.3165 47.7691 48.826 48.0393C48.2026 48.3836 48.1642 48.3904 47.1312 48.3726C46.4561 48.3592 46.3773 48.3613 46.2715 48.3996L46.1544 48.438L46.0711 48.339C45.9742 48.2242 45.3915 47.7334 45.2001 47.6074C44.5654 47.1864 43.9893 47.0919 43.7191 47.3642C43.6133 47.4701 43.5773 47.5982 43.5954 47.8054C43.6135 48.017 43.6608 48.179 43.9129 48.8836C44.2438 49.8087 44.3023 50.0786 44.2619 50.4951C44.2506 50.6256 44.228 50.8417 44.2123 50.9791C44.1718 51.364 44.1784 52.0796 44.2256 52.3858C44.3157 52.98 44.5003 53.6846 44.748 54.3799C45.2655 55.8428 45.3782 56.3336 45.322 56.9029C45.2703 57.4047 45.0565 58.5391 44.8267 59.5138C44.6445 60.2814 44.5859 60.7968 44.6085 61.4C44.6174 61.623 44.6332 61.8816 44.6424 61.9741L44.6606 62.1429L44.3636 62.629C43.7176 63.6777 43.4679 64.2203 43.2946 64.9563C43.1641 65.5009 43.1483 65.6653 43.1483 66.3743C43.1483 66.9662 43.1552 67.0676 43.2113 67.4772C43.2925 68.0444 43.3418 68.3099 43.4521 68.7489C43.7446 69.9104 44.0238 70.5023 44.9578 71.9203C45.1582 72.2241 45.3202 72.4875 45.3202 72.5101C45.3202 72.5303 45.264 72.6608 45.1942 72.8026C44.978 73.2413 44.8722 73.6331 44.8701 73.9842C44.8701 74.2565 44.9106 74.3692 45.0503 74.4952C45.1606 74.5942 45.3473 74.6686 45.4846 74.6686C45.5161 74.6686 45.6083 74.709 45.687 74.7586C45.8874 74.8847 46.0628 74.9432 46.2789 74.9566C46.4388 74.9655 46.4769 74.959 46.6053 74.9049C46.6841 74.8734 46.7831 74.8374 46.8259 74.8261C46.9609 74.7922 46.8663 74.8419 46.6615 74.9138C46.3892 75.0107 46.2542 75.0871 46.1505 75.2063C45.8378 75.5598 45.7275 76.0863 45.8693 76.5274C45.9525 76.784 46.0244 76.8425 46.2923 76.8651C46.4207 76.874 46.5016 76.899 46.657 76.9709C46.8327 77.0521 46.88 77.0631 47.006 77.061C47.0961 77.061 47.2064 77.0408 47.2852 77.0138C47.4089 76.9689 47.4246 76.9689 47.5441 76.998C47.614 77.0161 47.7558 77.0453 47.8592 77.0586C48.0394 77.0857 48.0572 77.0833 48.298 77.0227C48.6107 76.9415 48.7662 76.8853 48.8426 76.8268C49.0002 76.7007 49.3064 76.2034 49.4187 75.8859L49.4773 75.717L49.493 75.8993C49.5177 76.1918 49.5852 76.4754 49.6619 76.6196C49.7969 76.8672 50.0109 77.0494 50.2538 77.1237C50.3911 77.1666 50.4428 77.171 50.6545 77.1576C50.8706 77.1443 50.909 77.1463 51.0169 77.1915C51.197 77.2635 51.3522 77.3018 51.4649 77.3018C51.5977 77.3018 51.9533 77.2207 52.0208 77.1758C52.0523 77.1576 52.167 77.1309 52.2818 77.1196C52.615 77.0857 52.8106 76.9531 52.9052 76.701C52.9997 76.4445 52.9908 76.2352 52.8579 75.8211C52.7815 75.5803 52.7815 75.569 52.8287 75.569C52.8469 75.569 52.9661 75.5286 53.0921 75.4813C53.2182 75.4317 53.387 75.3755 53.4679 75.3529C53.549 75.3327 53.6998 75.2765 53.8056 75.2268C53.9721 75.1504 54.0238 75.1097 54.2221 74.9093C54.355 74.7744 54.517 74.5785 54.6136 74.4322C54.7307 74.2613 54.8701 74.0969 55.0637 73.9034C55.3811 73.5883 55.6534 73.3903 55.9347 73.2755C56.5358 73.0279 56.6683 72.9673 56.8125 72.8772C57.0084 72.7556 57.2626 72.4946 57.3684 72.3031C57.4606 72.1388 57.5979 71.7493 57.688 71.4006L57.751 71.1598L58.4398 70.991C59.4279 70.7457 60.0469 70.6488 60.9515 70.5947C62.3739 70.5115 62.6305 70.4597 63.5847 70.0772C65.2322 69.4154 65.5878 69.1972 65.8333 68.6931C65.946 68.4612 65.9819 68.3149 65.9977 68.0515C66.0158 67.6915 65.9278 67.3922 65.687 66.9891C65.4798 66.6448 65.3832 66.5839 65.1445 66.6448C64.8226 66.726 64.638 66.8565 64.3297 67.2278C64.1608 67.4302 64.0776 67.5114 63.9269 67.6104C63.6659 67.7837 63.5621 67.8265 62.9726 67.993C62.1489 68.2269 62.0927 68.2361 61.172 68.2766C60.8772 68.29 60.4654 68.3215 60.2538 68.3464C59.9342 68.3869 59.7969 68.3913 59.4211 68.3824C58.9461 68.369 58.7594 68.3464 58.5635 68.2766C58.3902 68.218 58.3025 68.1481 58.3203 68.092C58.4104 67.8084 58.4487 66.8473 58.3878 66.415C58.3405 66.064 58.2594 65.7242 58.1176 65.2491C57.9398 64.6593 57.8521 64.4524 57.3432 63.4259C56.7513 62.2309 56.7153 62.1138 56.7962 61.7243C56.9291 61.0852 56.9198 60.6328 56.74 59.1832C56.6071 58.0985 56.5037 57.655 56.2334 57.0001C56.0759 56.6175 55.9498 56.363 55.6752 55.877C55.369 55.3389 55.2429 55.0532 55.1799 54.7607C55.11 54.4367 55.0357 54.2024 54.8692 53.7818C54.7881 53.577 54.6983 53.3091 54.6689 53.1854C54.6397 53.0618 54.5946 52.8635 54.5675 52.7467C54.5113 52.4946 54.4483 52.3326 54.2075 51.8058C54.1085 51.5897 53.9712 51.2859 53.9037 51.1307C53.8362 50.9731 53.6516 50.5974 53.4917 50.2936C53.3317 49.9897 53.1653 49.6702 53.1225 49.5846C53.0413 49.4202 52.7669 48.9948 52.5395 48.6797C52.4676 48.5783 52.3932 48.4615 52.3775 48.4207C52.3278 48.306 52.2785 48.0358 52.2514 47.7388C52.2155 47.3381 52.1682 47.0298 52.0915 46.7171C52.0014 46.3413 51.774 45.6388 51.6819 45.4432C51.5401 45.1528 51.3284 44.9144 51.1393 44.8356C51.043 44.7937 50.98 44.7937 50.8875 44.832Z" fill="white"/>
</g>
</g>
<defs>
<filter id="filter0_d_162_9306" x="0" y="0" width="78" height="78" filterUnits="userSpaceOnUse" color-interpolation-filters="sRGB">
<feFlood flood-opacity="0" result="BackgroundImageFix"/>
<feColorMatrix in="SourceAlpha" type="matrix" values="0 0 0 0 0 0 0 0 0 0 0 0 0 0 0 0 0 0 127 0" result="hardAlpha"/>
<feOffset/>
<feGaussianBlur stdDeviation="7.5"/>
<feComposite in2="hardAlpha" operator="out"/>
<feColorMatrix type="matrix" values="0 0 0 0 1 0 0 0 0 1 0 0 0 0 1 0 0 0 0.5 0"/>
<feBlend mode="normal" in2="BackgroundImageFix" result="effect1_dropShadow_162_9306"/>
<feBlend mode="normal" in="SourceGraphic" in2="effect1_dropShadow_162_9306" result="shape"/>
</filter>
<clipPath id="clip0_162_9306">
<path d="M15 39C15 25.7452 25.7452 15 39 15C52.2548 15 63 25.7452 63 39C63 52.2548 52.2548 63 39 63C25.7452 63 15 52.2548 15 39Z" fill="white"/>
</clipPath>
</defs>
</svg>
